<svg xmlns="http://www.w3.org/2000/svg" width="216" height="160" viewBox="0 0 216 160">
    <g fill="none" fill-rule="evenodd">
        <path fill="#F2F4F7" d="M57.466 107.077A53.88 53.88 0 0 1 54 88c0-29.823 24.177-54 54-54s54 24.177 54 54c0 4.203-.48 8.294-1.389 12.221-1.277-.1-2.6-.174-3.974-.222-37.774-1.32-25.107 32.098-57.357 28.138-20.85-2.56-16.109-18.428-39.859-20.938-.663-.07-1.314-.11-1.955-.122z"/>
        <path fill="#B2FDF6" d="M32.316 58.57l-1.419-.693a5.79 5.79 0 1 0-5.076 10.408l10.928 5.33a1 1 0 0 0 1.337-.46l5.33-10.929a5.79 5.79 0 0 0-10.408-5.076l-.692 1.42zM133.24 8.78l-.93-1.432a6.264 6.264 0 0 0-10.508 6.823l7.21 11.102a1 1 0 0 0 1.383.294l11.101-7.21a6.264 6.264 0 1 0-6.823-10.507l-1.433.93zM176.863 62.882l-.608-1.096a4.596 4.596 0 1 0-8.04 4.456l4.58 8.261a1 1 0 0 0 1.36.39l8.26-4.579a4.596 4.596 0 0 0-4.456-8.04l-1.096.608zM172.594 34.426l.748-.146a2.796 2.796 0 1 1 1.067 5.489l-5.255 1.021a1 1 0 0 1-1.173-.79l-1.021-5.256a2.796 2.796 0 1 1 5.488-1.067l.146.749z"/>
        <path fill="#D9DFEF" d="M45 111.477c7.778-7.458 14.786-13.2 23.134-13.05 23.88.43 27.08 22.49 38.914 22.906 15.61.12 17.683-33.823 46.183-33.328 13.432.234 24.123 10.394 34.996 21.232-8.075-4.175-16.993-7.729-31.59-8.238-37.774-1.32-25.107 32.098-57.357 28.138-20.85-2.56-16.109-18.428-39.859-20.938-5.38-.569-9.961.837-14.421 3.278z"/>
        <path fill="#D9DFEF" d="M4.5 141.91c13.418-7.25 24.536-18.767 39.57-18.578 21.813.273 22.493 18.848 34.437 19.08 9.062-.001 22.98-10.587 41.256-10.367 10.779.13 13.308 11.139 21.628 20.15-10.443-5.317-15.116-13.018-26.252-13.152-18.285-.22-23.011 9.044-39.097 9.044-24.88 0-17.249-17.758-33.945-17.758-10.129 0-23.34 6.454-37.597 11.58z"/>
    </g>
</svg>
