<svg xmlns="http://www.w3.org/2000/svg" width="32" height="32" viewBox="0 0 32 32">
    <path fill="#FF5800" fill-rule="nonzero" d="M23.2 13.504v4.876a1.948 1.948 0 0 1-3.895 0V9.526a.678.678 0 1 0-1.357 0v17.333a1.948 1.948 0 1 1-3.896 0V5.113a.678.678 0 0 0-1.357 0V20.98a1.948 1.948 0 0 1-3.895 0v-8.81a.678.678 0 1 0-1.357 0v2.354a1.948 1.948 0 0 1-1.948 1.948h-1.86a.635.635 0 0 1 0-1.27h1.86a.678.678 0 0 0 .678-.678V12.17a1.948 1.948 0 1 1 3.896 0v8.811a.678.678 0 1 0 1.357 0V5.113a1.948 1.948 0 0 1 3.896 0V26.86a.678.678 0 0 0 1.356 0V9.526a1.948 1.948 0 1 1 3.896 0v8.854a.678.678 0 0 0 1.357 0v-4.876a1.948 1.948 0 1 1 3.896 0v1.038c0 .374.303.678.678.678h1.86a.635.635 0 0 1 0 1.27h-1.86a1.948 1.948 0 0 1-1.948-1.948v-1.038a.678.678 0 0 0-1.357 0z"/>
</svg>
