<svg xmlns="http://www.w3.org/2000/svg" width="104" height="80" viewBox="0 0 104 80">
    <g fill="none" fill-rule="evenodd">
        <path fill="#00F2DD" d="M52.877 9.089c-6.791-.811-12.954 4.037-13.765 10.828-.088.739-.11 1.483-.064 2.225l.825 13.483A10.062 10.062 0 0 0 50.11 45.07l29.982-.576c.398-.008.783.138 1.076.407l6.238 5.717A1.548 1.548 0 0 0 90 49.478V18.33a5.418 5.418 0 0 0-4.776-5.38L52.877 9.089z"/>
        <path fill="#CBFAF6" d="M20.17 24.799l36.889-4.405c8.774-1.047 16.736 5.216 17.784 13.99a16 16 0 0 1 .083 2.875l-.847 13.834c-.426 6.955-6.26 12.337-13.226 12.203l-34.931-.672a2 2 0 0 0-1.39.526l-7.18 6.582A2 2 0 0 1 14 68.258V31.75a7 7 0 0 1 6.17-6.951z"/>
        <path fill="#0245FF" d="M23.268 52.565c3.487-2.606 6.155-6.342 10.396-6.883 6.153-.785 7.092 4.504 10.464 4.098 2.552-.36 6.046-3.94 11.201-4.6 3.04-.39 4.196 2.661 6.9 4.91-3.154-1.108-4.78-3.127-7.92-2.724-5.158.66-6.117 3.499-10.646 4.135-7.006.985-5.572-4.399-10.273-3.738-2.853.4-6.313 2.77-10.122 4.802zM34.59 33.633c6.154-.785 7.093 4.504 10.465 4.098 2.552-.36 6.045-3.94 11.201-4.6 3.04-.389 4.195 2.661 6.9 4.91-3.154-1.108-4.78-3.126-7.92-2.724-5.159.66-6.117 3.499-10.647 4.135-7.006.985-5.57-4.399-10.273-3.738-2.852.4-6.312 2.77-10.12 4.802 3.486-2.606 6.154-6.341 10.395-6.883z"/>
    </g>
</svg>
