<svg xmlns="http://www.w3.org/2000/svg" width="24" height="24" viewBox="0 0 24 24">
    <path fill="#61637F" fill-rule="nonzero" d="M6 13.5a1.5 1.5 0 1 0 0-3 1.5 1.5 0 0 0 0 3zm2.185.556a3 3 0 1 1-.09-4.203l7.477-4.317c.684-.395 1.397.925.693 1.331l-7.392 4.268a3 3 0 0 1 .035 1.606l7.7 4.446c.59.34-.167 1.635-.76 1.293l-7.663-4.424zM18 6.5a1.5 1.5 0 1 0 0-3 1.5 1.5 0 0 0 0 3zM18 8a3 3 0 1 1 0-6 3 3 0 0 1 0 6zm0 12.5a1.5 1.5 0 1 0 0-3 1.5 1.5 0 0 0 0 3zm0 1.5a3 3 0 1 1 0-6 3 3 0 0 1 0 6z"/>
</svg>
