<svg xmlns="http://www.w3.org/2000/svg" width="112" height="60" viewBox="0 0 112 60">
    <g fill="none" fill-rule="nonzero">
        <path fill="#262626" d="M31.8 18.353l3.21 13.519H23.855l7.945-13.52zm-.578-8.836L9.494 46.333h5.897l5.522-9.473h15.253l2.261 9.473h5.207L34.856 9.517h-3.634z"/>
        <path fill="#00F1DD" d="M23.56 46.333L17.09 9.517h5.207l5.575 31.82H44.23l.894 4.996z" opacity=".79"/>
        <path fill="#000" d="M28.904 57.502c-15.168 0-27.464-12.296-27.464-27.464S13.736 2.574 28.904 2.574 56.367 14.87 56.367 30.038 44.072 57.502 28.904 57.502zm0-.458c14.914 0 27.005-12.091 27.005-27.006 0-14.914-12.09-27.005-27.005-27.005S1.898 15.123 1.898 30.038 13.99 57.044 28.904 57.044zM76.682 21.586H70.68l-1.433 3.785h-2.008l5.392-13.554h2.16l5.391 13.554h-2.026l-1.473-3.785zm-5.334-1.74h4.665l-2.348-6.08-2.317 6.08zM82.78 11.398a1.291 1.291 0 1 1 .021 2.582 1.291 1.291 0 0 1-.021-2.582zm-.88 13.974v-9.196h1.778v9.195l-1.778.001zM91.846 17.99a5.601 5.601 0 0 0-.783-.057c-1.51 0-2.524.802-2.524 2.83v4.606h-1.797v-9.193H88.5v1.606c.67-1.415 1.817-1.76 2.75-1.76.2.003.398.022.593.059l.003 1.91zM101.668 22.752c-.517 1.625-1.987 2.903-4.126 2.903-2.466 0-4.626-1.797-4.626-4.914 0-2.886 2.084-4.856 4.397-4.856 2.83 0 4.416 1.95 4.416 4.818 0 .191-.012.383-.038.573h-6.92c.038 1.644 1.222 2.791 2.771 2.791 1.492 0 2.237-.822 2.581-1.855l1.545.54zm-1.817-2.925c-.038-1.318-.898-2.351-2.524-2.351a2.474 2.474 0 0 0-2.504 2.351h5.028zM68.768 46.234V32.68h1.873v11.795h6.405v1.759zM79.929 32.26a1.291 1.291 0 1 1 .021 2.582 1.291 1.291 0 0 1-.021-2.582zm-.877 13.974v-9.195h1.778v9.195h-1.778zM83.89 46.234V32.393h1.778v5.945c.44-.822 1.51-1.568 3.039-1.568 2.791 0 4.224 2.14 4.224 4.817 0 2.734-1.548 4.89-4.278 4.89-1.357 0-2.41-.593-2.982-1.588v1.345h-1.782zm4.491-7.876c-1.586 0-2.733 1.242-2.733 3.231 0 1.99 1.147 3.288 2.733 3.288 1.644 0 2.715-1.3 2.715-3.288 0-1.988-1.05-3.231-2.715-3.231zM100.33 38.854a5.59 5.59 0 0 0-.785-.058c-1.51 0-2.524.804-2.524 2.83v4.608h-1.796v-9.195h1.758v1.606c.67-1.415 1.817-1.759 2.75-1.759.2.002.398.021.593.058l.003 1.91zM110.157 43.615c-.517 1.624-1.987 2.903-4.126 2.903-2.466 0-4.626-1.797-4.626-4.914 0-2.886 2.084-4.855 4.397-4.855 2.83 0 4.416 1.95 4.416 4.817 0 .192-.012.383-.038.573h-6.92c.038 1.644 1.222 2.791 2.771 2.791 1.492 0 2.237-.822 2.58-1.854l1.546.539zm-1.817-2.924c-.038-1.319-.898-2.352-2.524-2.352a2.474 2.474 0 0 0-2.51 2.352h5.034z"/>
    </g>
</svg>
