<svg xmlns="http://www.w3.org/2000/svg" width="164" height="88" viewBox="0 0 164 88">
    <g fill="none" fill-rule="nonzero">
        <path fill="#262626" d="M46.64 26.918l4.707 19.827H34.988l11.653-19.827zm-.848-12.96L13.924 67.956h8.65l8.098-13.893h22.371l3.317 13.893h7.637L51.123 13.96h-5.331z"/>
        <path fill="#00F1DD" d="M34.554 67.955L25.066 13.96h7.637l8.177 46.668h23.99l1.312 7.328z" opacity=".79"/>
        <path fill="#000" d="M42.392 84.336c-22.246 0-40.28-18.034-40.28-40.28 0-22.246 18.034-40.28 40.28-40.28 22.246 0 40.28 18.034 40.28 40.28 0 22.246-18.034 40.28-40.28 40.28zm0-.672C64.267 83.664 82 65.93 82 44.056 82 22.181 64.267 4.448 42.392 4.448c-21.875 0-39.608 17.733-39.608 39.608 0 21.875 17.733 39.608 39.608 39.608zM112.467 31.66h-8.804l-2.102 5.55h-2.945l7.908-19.879h3.169l7.906 19.88h-2.972l-2.16-5.552zm-7.823-2.553h6.842l-3.445-8.917-3.397 8.917zM121.41 16.717a1.894 1.894 0 1 1 .032 3.787 1.894 1.894 0 0 1-.031-3.787zm-1.29 20.495V23.724h2.608V37.21l-2.608.002zM134.708 26.387a8.215 8.215 0 0 0-1.15-.086c-2.213 0-3.701 1.177-3.701 4.15v6.757h-2.636V23.724h2.58v2.356c.981-2.076 2.664-2.58 4.033-2.58.292.003.583.032.87.085l.004 2.802zM149.113 33.37c-.758 2.384-2.914 4.257-6.05 4.257-3.618 0-6.786-2.635-6.786-7.207 0-4.233 3.056-7.121 6.449-7.121 4.15 0 6.476 2.859 6.476 7.065a5.89 5.89 0 0 1-.056.84h-10.149c.056 2.412 1.793 4.095 4.065 4.095 2.187 0 3.28-1.206 3.785-2.72l2.266.79zm-2.665-4.29c-.056-1.934-1.317-3.449-3.702-3.449a3.628 3.628 0 0 0-3.673 3.45h7.375zM100.86 67.81V47.93h2.747v17.3H113v2.58zM117.23 47.314a1.894 1.894 0 1 1 .03 3.787 1.894 1.894 0 0 1-.03-3.787zm-1.287 20.496V54.324h2.608V67.81h-2.608zM123.038 67.81v-20.3h2.608v8.719c.645-1.206 2.214-2.3 4.457-2.3 4.094 0 6.196 3.138 6.196 7.066 0 4.009-2.27 7.17-6.274 7.17-1.99 0-3.534-.869-4.375-2.327v1.972h-2.612zm6.588-11.552c-2.326 0-4.01 1.822-4.01 4.74 0 2.917 1.684 4.822 4.01 4.822 2.411 0 3.982-1.907 3.982-4.823 0-2.915-1.542-4.74-3.982-4.74zM147.15 56.986a8.2 8.2 0 0 0-1.15-.085c-2.214 0-3.702 1.179-3.702 4.15v6.759h-2.635V54.324h2.579v2.355c.982-2.075 2.664-2.58 4.034-2.58.291.003.582.032.87.086l.004 2.801zM161.563 63.969c-.757 2.382-2.913 4.257-6.05 4.257-3.617 0-6.786-2.635-6.786-7.206 0-4.233 3.057-7.122 6.45-7.122 4.15 0 6.476 2.86 6.476 7.066 0 .28-.018.561-.056.84h-10.15c.057 2.411 1.793 4.094 4.066 4.094 2.187 0 3.28-1.206 3.784-2.72l2.266.79zm-2.664-4.29c-.056-1.933-1.318-3.448-3.702-3.448a3.628 3.628 0 0 0-3.682 3.449h7.384z"/>
    </g>
</svg>
